<?xml version="1.0" encoding="utf-8"?>
<!-- Generator: Adobe Illustrator 19.2.1, SVG Export Plug-In . SVG Version: 6.00 Build 0)  -->
<svg version="1.1" id="_x5F_ID3" xmlns="http://www.w3.org/2000/svg" xmlns:xlink="http://www.w3.org/1999/xlink" x="0px" y="0px"
	 viewBox="0 0 1280 800" style="enable-background:new 0 0 1280 800;" xml:space="preserve">
<style type="text/css">
	.st0{fill-rule:evenodd;clip-rule:evenodd;fill:#ffffff;}
	.st1{fill:#ffffff;}
	.st2{font-family:'HelveticaNeue-Light';}
	.st3{font-size:45px;}
	.st4{letter-spacing:-1;}
</style>
<g id="Logo">
	<g>
		<path class="st0" d="M921.1,268c-5.6-6-11.2-12.1-16.8-18.1c-8.9-11.1-21-19.2-32.6-27.6c-43.6-31.7-94.2-47.8-159.4-59.3
			c-33-1.8-66.1-3.6-99.2-5.4c-7.2-0.2-14.5-0.3-21.7-0.5c-48.3-2.3-96.6-4.5-144.9-6.8c-3.2,1.2-6.3,2.4-9.5,3.6
			c-9.7,7.4,1.9,17.6,9.5,19.5c32.7,1.4,65.5,2.7,98.2,4.1c52.2,2.3,104.4,4.5,156.7,6.8c45.1,7.4,82.6,14.8,115.9,32.6
			c14.3,7.6,33.2,15,43,27.2c-17.6-5.8-35.1-13.9-53.9-19.5c-26.6-7.9-55.2-11.3-85.1-16.3c-37.7-1.8-75.5-3.6-113.2-5.4
			c-11.8-0.5-23.5-0.9-35.3-1.4c-12.4-0.5-24.8-0.9-37.1-1.4c-25.2-0.9-50.4-1.8-75.6-2.7c-11.6-0.1-26.7-0.4-25.8,11.3
			c1.1,14.6,25,12.4,40.7,12.7c36.7,1.2,73.4,2.4,110,3.6c35.6,1.2,71.2,2.4,106.9,3.6c19.3,2.9,38.4,2.3,56.6,5.9
			c57.7,11.3,137.5,33.2,160.3,77c-3.9-2.9-7.8-5.7-11.8-8.6c-10.1-5.7-20.2-11.5-30.3-17.2c-24.8-10.9-52.1-18.2-81.5-24.9
			c-23.1-5.3-47.9-4.7-72.9-8.6c-10.9-0.5-21.7-0.9-32.6-1.4c-20.1-0.6-40.1-1.2-60.2-1.8c-20.8-0.6-41.7-1.2-62.5-1.8
			c-30.6-0.9-61.3-1.8-91.9-2.7c-12.2-1.9-25.7,0.1-29,7.7c-7.6,16.6,23.3,16.2,37.6,16.3c42.3,1.1,84.5,2.1,126.8,3.2
			c37.1,1.1,74.3,2.1,111.4,3.2c16.9,1.7,33.8,3.3,50.7,5c63.5,12,120.5,27.9,149.4,74.3c5.7,9.1,8.5,19.5,12.7,30.3
			c0,0.5,0,0.9,0,1.4c-0.3,0-0.6,0-0.9,0c-5.1-15.6-20.2-29.2-32.1-38.5c-25.1-19.5-53-30.3-89.6-39.4c-14.9-2.4-29.9-4.8-44.8-7.2
			c-22.2-1.4-44.4-2.7-66.6-4.1c-37-0.6-74-1.2-110.9-1.8c-34.6-0.9-69.1-1.8-103.7-2.7c-11.5-1.8-29.3-1.4-35.8,3.2
			c-6.7,4.7-3.5,47.9-3.2,61.6c1.5,65,3,130.1,4.5,195.1c5.6,11.5,30.6,7.3,46.6,7.2c43.3-1.1,86.6-2.1,129.9-3.2
			c23.2-0.6,46.5-1.2,69.7-1.8c6.8,0,13.6,0,20.4,0c11.9-1.1,23.8-2.1,35.8-3.2c101.4-19.8,192.5-63,211.4-163.9
			C964.8,337.8,940.2,293.2,921.1,268z M688.8,320c16.8,0.8,33.5,1.5,50.3,2.3c0.2,2.7,0.3,5.4,0.5,8.1c-13.7-0.4-34.9-4.2-36.7,9.1
			c-2,15.2,24,14,37.6,14.5c1.1,4.9-1.4,10.6-3.2,14c-9.7,18.9-29.8,21.9-59.3,21.3c-2.9-6.3-0.2-16.6-1.4-24.4
			c-0.6-14.9-1.2-29.9-1.8-44.8C679.5,320,684.2,320,688.8,320z M641.8,319.1c0.9,22.8,1.8,45.6,2.7,68.4c1.4,9.4-1.4,16.8,4.5,21.3
			c8.7,6.4,31.3,3.6,45.7,3.6c39.7,0,70.7-15.7,77.4-48.4c2.4-11.9-0.6-26-0.9-38c9.7,0.3,22.6,1.8,30.3,5.4
			c3.2,2.5,2.1,15.1,2.3,20.4c0.5,20.8-3.4,32.9-12.2,44.8c-33,44.6-101.3,40.2-178.8,39.4c-1.4-39.1-2.7-78.2-4.1-117.3
			C619.7,318.8,630.7,319,641.8,319.1z M574.8,317.8c1.1,32.7,2.1,65.5,3.2,98.2c0.1,13.1-2,35,5.9,40.7c9.2,6.7,69.7,2.7,87.4,2.7
			c80,0,147.7-18.9,163-82c2.7-11.1,0.5-24,0.5-36.2c10,1.9,26.3,10.2,31.2,17.7c2.5,6.5-1.3,19.1-2.7,24.4
			c-6,21.8-16.1,36-29.9,49.8c-23.2,23.2-54.7,37.3-92.8,45.7c-14.6,3.2-30.9,4.1-48,4.1c-9.2,0-18.4,0-27.6,0
			c-39.7,0.5-79.4,0.9-119.1,1.4c-1.5-55.7-3-111.4-4.5-167.1C552.4,317.5,563.6,317.6,574.8,317.8z M849.6,488
			c-27.5,17.3-58.7,28.9-96,37.1c-17.6,3.9-36.7,2.4-56.1,5.4c-7.8,0.2-15.7,0.3-23.5,0.5c-9.1,0-18.1,0-27.2,0
			c-56.6,1.2-113.2,2.4-169.8,3.6c-1.8-72.4-3.6-144.9-5.4-217.3c0.3-0.5,0.6-0.9,0.9-1.4c11,0.3,22,0.6,33.1,0.9
			c4.3,5,0.4,35.4,1.8,44.8c0.9,32.6,1.8,65.2,2.7,97.8c0,10.5-1.6,37.3,2.7,43.5c5.8,8.4,21.6,5.9,34.9,5.9
			c30-0.5,60.1-0.9,90.1-1.4c104.7-0.1,157.3-8.4,215.5-55.2c15.2-12.2,36.9-38.9,39.8-62.5c0.3-0.2,0.6-0.3,0.9-0.5
			c4.6,6,5.7,13.9,7.2,23.1C907.4,449.8,870.6,474.8,849.6,488z"/>
	</g>
</g>
<text transform="matrix(1 0 0 1 359.6073 611.5753)" class="st1 st2 st3 st4">Innovate. Instrument. Industrialize</text>
<text transform="matrix(0 -1 1 0 395.0023 567.2041)" class="st1 st2 st3">Discover. Define. Distill</text>
</svg>
